<svg id="Layer_1" data-name="Layer 1" xmlns="http://www.w3.org/2000/svg" viewBox="0 0 471.41 471.41"><defs><style>.cls-1{fill:#191213;}.cls-2{fill:#fff;}.cls-3{fill:#f0e7e6;}.cls-4{fill:#ef3823;}</style></defs><title>pokeball</title><path class="cls-1" d="M491.93,256.26a237,237,0,0,1-3.81,42.4c-45.31,0-90.63,0-135.95-.18-4.54,0-6.79,1.54-9.07,5.43-20.64,35.2-51.66,52.93-92.3,50.89-35.05-1.74-62-18.93-79.92-49.29-3.07-5.19-6.1-7.13-12.17-7.09-44.79.28-89.6.17-134.4.16a238.25,238.25,0,0,1,.07-85c45.3,0,90.6,0,135.91.18,4.53,0,6.79-1.54,9.07-5.42C190,173.1,221,155.37,261.65,157.4c35.06,1.75,62,18.94,79.93,49.29,3.07,5.2,6.09,7.13,12.16,7.1,44.78-.29,89.56-.18,134.34-.17A236.71,236.71,0,0,1,491.93,256.26Z" transform="translate(-20.52 -20.56)"/><circle class="cls-2" cx="235.71" cy="235.7" r="72.84"/><circle class="cls-1" cx="235.71" cy="235.7" r="43.49"/><path class="cls-3" d="M488.12,298.66C468.15,408.6,371.92,492,256.23,492A235.26,235.26,0,0,1,73.12,404.71a277.2,277.2,0,0,0,371-106.07Z" transform="translate(-20.52 -20.56)"/><path class="cls-4" d="M160.29,213.72c-45.31-.18-90.61-.15-135.91-.18,20.1-109.78,116.26-193,231.85-193S468,103.8,488.08,213.62c-44.78,0-89.56-.12-134.34.17-6.07,0-9.09-1.9-12.16-7.1-17.92-30.35-44.87-47.54-79.93-49.29-40.63-2-71.65,15.7-92.29,50.9C167.08,212.18,164.82,213.75,160.29,213.72Z" transform="translate(-20.52 -20.56)"/><path class="cls-2" d="M444.09,298.64a277.2,277.2,0,0,1-371,106.07A234.88,234.88,0,0,1,24.31,298.58c44.8,0,89.6.12,134.4-.16,6.07,0,9.1,1.9,12.17,7.09,17.92,30.36,44.87,47.55,79.91,49.29,40.65,2,71.66-15.69,92.3-50.89,2.29-3.89,4.54-5.45,9.08-5.43Q398.13,298.66,444.09,298.64Z" transform="translate(-20.52 -20.56)"/></svg>